<?xml version="1.0" encoding="UTF-8"?>
<svg id="Layer_1" xmlns="http://www.w3.org/2000/svg" version="1.1" viewBox="0 0 2103.36 765.99">
  <!-- Generator: Adobe Illustrator 29.8.2, SVG Export Plug-In . SVG Version: 2.1.1 Build 3)  -->
  <defs>
    <style>
      .st0 {
        fill: #f26928;
      }

      .st1, .st2 {
        fill-rule: evenodd;
      }

      .st1, .st3 {
        fill: #d92132;
      }

      .st2 {
        fill: #fcb31c;
      }

      .st4 {
        fill: #086b38;
      }
    </style>
  </defs>
  <g>
    <g>
      <path class="st0" d="M1318.28,195.44h-105.63c-3.59-11.34-7.02-20.84-10.28-28.4-3.41-7.91-7-14.15-10.78-18.72-3.77-4.57-8.09-7.8-12.95-9.69-4.86-1.88-10.63-2.83-17.3-2.83-4.2,0-8.45.36-12.73,1.09-4.28.73-8.38,1.81-12.3,3.26l7.62,23.72c2.47-1.01,5.11-1.81,7.94-2.4,2.83-.58,5.55-.87,8.16-.87,3.05,0,5.73.47,8.05,1.42,2.33.95,4.46,2.72,6.42,5.33,1.96,2.61,3.92,6.31,5.88,11.1,1.82,4.45,3.87,10.14,6.13,16.98h-95.27v24.38h24.38v39.62h-1.09c-6.53,0-10.88,1.23-13.06,3.7-2.17,2.47-3.26,5.37-3.26,8.7s1.01,6.94,3.05,10.78c2.03,3.85,4.64,7.4,7.84,10.66,3.19,3.26,6.71,5.96,10.56,8.06,3.84,2.11,7.58,3.15,11.21,3.15,4.79,0,8.52-1.38,11.21-4.13,2.68-2.76,4.02-7.18,4.02-13.27v-3.26h39.84v47.01h30.26v-111.01h62.5c.28.77.61,1.44.84,2.28,1.01,3.7,1.53,7.58,1.53,11.64,0,5.66-1.42,10.38-4.25,14.15-1.5,2.01-3.55,3.86-6.06,5.58-1.87-1.65-3.7-3.14-5.48-4.38-4.28-2.98-9.03-4.47-14.26-4.47-4.79,0-8.67,1.35-11.64,4.03s-4.46,6.35-4.46,10.99c0,3.63.76,7.33,2.29,11.1,1.52,3.78,4.02,7.99,7.51,12.62,5.37,7.55,12.37,15.64,21.01,24.28,8.63,8.63,18.83,17.95,30.58,27.97l20.89-19.38c-5.52-4.5-10.88-8.89-16.11-13.17-5.22-4.27-10.23-8.59-15.02-12.95-3.27-2.97-6.29-6.02-9.35-9.06,6.14-2.47,11.77-5.28,16.54-8.68,5.8-4.13,10.26-9.04,13.39-14.7,3.12-5.65,4.68-12.19,4.68-19.59,0-5.37-.47-9.97-1.41-13.82-.39-1.59-1.01-2.96-1.49-4.46h26.63v111.01h30.48v-111.01h20.02v-24.38h-67.26ZM1185.94,259.44h-39.84v-39.62h39.84v39.62Z"/>
      <path class="st0" d="M1613.45,195.44h-60.95v24.38h13.72v30.88c-1.91.63-3.83,1.25-5.77,1.66-5.15,1.08-10.48,1.63-16,1.63-4.06,0-7.87-.18-11.43-.55-1.55-.15-2.87-.55-4.32-.81,7.43-6.61,11.18-15,11.18-25.2,0-6.53-1.34-12.37-4.02-17.52-2.69-5.15-6.93-9.21-12.74-12.19-5.8-2.97-13.35-4.46-22.64-4.46-7.26,0-14.08.8-20.46,2.4-6.39,1.6-12.26,3.85-17.63,6.75l8.05,23.08c4.5-2.47,8.93-4.32,13.28-5.55,4.35-1.23,8.7-1.85,13.06-1.85s7.73.91,10.12,2.72c2.39,1.81,3.59,4.54,3.59,8.16,0,2.76-.84,5.11-2.5,7.08-1.67,1.96-4.57,3.63-8.71,5-4.13,1.38-9.98,2.51-17.52,3.38l4.13,22.42c7.74-.51,14.51-1.67,20.61-3.27,1.01.97,1.94,1.95,2.79,2.94,3.41,3.99,5.11,8.45,5.11,13.38s-1.49,8.7-4.46,11.32c-2.97,2.61-7.07,3.91-12.3,3.91-7.98,0-15.09-3.99-21.33-11.97-6.24-7.98-12.55-20.31-18.94-37.01l-23.51,11.53c6.24,15.82,12.73,28.26,19.48,37.34,6.75,9.07,14,15.53,21.76,19.37,7.76,3.85,16.51,5.77,26.23,5.77,12.92,0,23.11-3.26,30.58-9.79,7.47-6.53,11.21-15.68,11.21-27.43,0-2.14-.25-4.17-.61-6.14,2.72.29,5.46.48,8.23.48,4.64,0,9.11-.44,13.39-1.31.69-.14,1.38-.36,2.07-.53v55.38h30.25v-111.01h33.74v111.01h30.48v-111.01h20.02v-24.38h-67.26Z"/>
      <path class="st0" d="M1974.34,195.44h-211.57v24.38h11.97v55.06c-3.11,3.89-6.8,7.05-11.1,9.47-5.8,3.26-12.62,4.9-20.46,4.9-5.66,0-10.23-.91-13.72-2.72-3.48-1.81-5.22-4.61-5.22-8.38,0-2.32.69-4.25,2.07-5.77,1.38-1.53,3.41-2.65,6.1-3.38,2.68-.72,5.98-1.08,9.9-1.08h4.25c1.23,0,2.43.07,3.59.21l1.96-22.2c-1.89-.29-3.95-.55-6.2-.77-2.25-.21-4.54-.32-6.86-.32-4.93,0-9.54.29-13.82.87-.29.04-.55.15-.84.19-4.51-1.59-8.14-3.78-10.81-6.62-3.34-3.55-5-7.65-5-12.29,0-3.77,1.01-6.82,3.05-9.14,2.03-2.32,4.71-3.48,8.05-3.48,2.76,0,4.82.65,6.21,1.96,1.37,1.3,2.07,3.26,2.07,5.88,0,1.3-.33,2.76-.98,4.35-.65,1.6-1.56,3.12-2.72,4.57l21.11,7.41c2.47-2.76,4.28-5.7,5.44-8.82,1.16-3.12,1.74-6.42,1.74-9.9,0-4.79-1.09-9.18-3.27-13.17-2.17-3.99-5.69-7.22-10.55-9.68-4.86-2.47-11.36-3.7-19.48-3.7-12.05,0-21.26,2.91-27.65,8.71-6.39,5.81-9.58,13.72-9.58,23.73,0,6.39,1.45,11.97,4.36,16.76,2.9,4.79,6.93,8.81,12.08,12.08,1.59,1.01,3.33,1.85,5.02,2.74-2.31,2.01-4.22,4.17-5.67,6.51-2.69,4.36-4.03,9.29-4.03,14.81,0,6.82,1.92,12.88,5.77,18.17,3.84,5.3,9.39,9.43,16.65,12.4,7.26,2.98,15.96,4.47,26.12,4.47,8.56,0,16.03-1.09,22.42-3.26,3.76-1.28,7.06-2.93,10.02-4.87v25.32h30.25v-111.01h28.3v111.01h30.48v-111.01h62.28c.28.77.61,1.44.84,2.28,1.01,3.7,1.53,7.58,1.53,11.64,0,5.66-1.42,10.38-4.25,14.15-1.5,2.01-3.55,3.86-6.06,5.58-1.87-1.65-3.7-3.14-5.48-4.38-4.28-2.98-9.03-4.47-14.26-4.47-4.79,0-8.67,1.35-11.64,4.03-2.97,2.68-4.46,6.35-4.46,10.99,0,3.63.76,7.33,2.29,11.1,1.52,3.78,4.02,7.99,7.51,12.62,5.37,7.55,12.37,15.64,21.01,24.28,8.63,8.63,18.83,17.95,30.58,27.97l20.89-19.38c-5.52-4.5-10.88-8.89-16.11-13.17-5.22-4.27-10.23-8.59-15.02-12.95-3.27-2.97-6.29-6.02-9.35-9.06,6.14-2.47,11.77-5.28,16.54-8.68,5.8-4.13,10.26-9.04,13.39-14.7,3.12-5.65,4.68-12.19,4.68-19.59,0-5.37-.47-9.97-1.41-13.82-.39-1.59-1.01-2.96-1.49-4.46h18.57v-24.38Z"/>
    </g>
    <g>
      <path class="st4" d="M1351.81,426.28c-4.79-9.21-11.14-16.39-19.05-21.54-7.91-5.15-17.96-7.73-30.15-7.73s-22.67,3.19-29.71,9.58c-7.03,6.38-10.56,14.95-10.56,25.68,0,4.21.55,8.49,1.63,12.84.96,3.85,2.42,7.7,4.23,11.54h-55.55c-3.59-11.34-7.03-20.84-10.28-28.41-3.41-7.91-7-14.14-10.78-18.72-3.77-4.57-8.09-7.8-12.95-9.68-4.86-1.89-10.63-2.83-17.3-2.83-4.2,0-8.45.36-12.73,1.09-4.28.73-8.38,1.81-12.3,3.26l7.62,23.72c2.47-1.01,5.11-1.81,7.94-2.4,2.83-.57,5.55-.87,8.16-.87,3.05,0,5.73.47,8.05,1.42,2.33.94,4.46,2.72,6.42,5.34,1.96,2.61,3.92,6.31,5.88,11.1,1.82,4.45,3.87,10.15,6.13,16.98h-95.27v24.37h24.38v39.62h-1.09c-6.53,0-10.88,1.23-13.06,3.7-2.17,2.47-3.26,5.37-3.26,8.7s1.01,6.94,3.05,10.78c2.03,3.85,4.64,7.4,7.84,10.66,3.19,3.26,6.71,5.96,10.56,8.06,3.84,2.11,7.58,3.15,11.21,3.15,4.79,0,8.52-1.38,11.21-4.13,2.68-2.76,4.02-7.18,4.02-13.27v-3.26h39.84v47.01h30.26v-111.02h62.5c.28.77.61,1.45.84,2.29,1.01,3.7,1.53,7.58,1.53,11.64,0,5.66-1.42,10.38-4.25,14.14-1.5,2.01-3.55,3.86-6.06,5.58-1.87-1.65-3.7-3.14-5.48-4.38-4.28-2.98-9.03-4.47-14.26-4.47-4.79,0-8.67,1.35-11.64,4.03-2.97,2.68-4.46,6.35-4.46,10.99,0,3.63.76,7.33,2.29,11.1,1.52,3.78,4.02,7.99,7.51,12.62,5.37,7.55,12.37,15.64,21.01,24.28,8.63,8.63,18.83,17.95,30.58,27.97l20.89-19.38c-5.52-4.5-10.88-8.89-16.11-13.17-5.22-4.27-10.23-8.59-15.02-12.95-3.27-2.97-6.29-6.02-9.35-9.06,6.14-2.47,11.77-5.28,16.54-8.68,5.8-4.13,10.26-9.04,13.39-14.7,3.12-5.65,4.68-12.19,4.68-19.59,0-5.37-.47-9.97-1.41-13.82-.39-1.59-1.01-2.96-1.49-4.47h26.63v111.02h30.48v-111.02h20.02v-24.37h-22.81c-2.72-11.4-6.35-21.55-10.93-30.37ZM1185.94,520.65h-39.84v-39.62h39.84v39.62ZM1318.28,456.65h-20.42c-1.3-2.86-2.53-5.74-3.52-8.71-1.16-3.48-1.74-7.04-1.74-10.66,0-4.93,1.23-8.81,3.7-11.64,2.47-2.83,6.24-4.25,11.32-4.25,6.82,0,12.44,3.12,16.87,9.36,4.23,5.96,7.67,14.65,10.38,25.91h-16.58Z"/>
      <path class="st4" d="M1886.84,456.65h-458.85v24.37h14.37v34.83c0,10.02,1.67,18.4,5,25.14,3.34,6.75,8.42,11.83,15.24,15.24,6.82,3.4,15.31,5.11,25.47,5.11,6.53,0,12.99-1.02,19.37-3.05,2.55-.81,4.88-1.83,7.18-2.87v36.61h30.48v-111.02h87.72v12.62h-26.77c-12.19,0-21.55,2.33-28.08,6.97-6.53,4.64-9.79,11.39-9.79,20.24,0,5.23,1.52,10.2,4.57,14.91,1.88,2.92,4.52,5.79,7.73,8.62-1.64,1.41-3.19,2.9-4.57,4.55-5.01,5.96-7.51,13.72-7.51,23.29,0,8.28,2.35,15.79,7.08,22.53,4.71,6.75,11.9,12.81,21.55,18.17,9.65,5.37,21.88,10.23,36.68,14.59l12.62-23.72c-10.88-3.63-19.88-7.04-26.99-10.23-7.11-3.19-12.34-6.53-15.67-10.02-3.34-3.48-5.01-7.4-5.01-11.76,0-5.23,2.07-9.32,6.21-12.29,4.13-2.98,10.12-4.47,17.96-4.47,6.67,0,11.5,1.13,14.47,3.38s4.46,5.04,4.46,8.38c0,2.61-.87,5.11-2.61,7.51-1.74,2.4-4.21,4.61-7.4,6.64l24.82,14.36c5.37-4.5,9.25-9.14,11.64-13.93,2.4-4.79,3.59-10.02,3.59-15.68,0-6.1-1.63-11.71-4.9-16.87-3.27-5.14-8.38-9.32-15.35-12.51-6.96-3.19-16.04-4.79-27.21-4.79-7.79,0-15.01.79-21.66,2.36-.73-.64-1.5-1.27-2.07-1.93-1.74-2.03-2.61-4.2-2.61-6.53,0-2.75,1.01-4.86,3.05-6.31,2.03-1.45,5.23-2.17,9.58-2.17h52.24v-35.92h114.93v53.33c-2.44,3.27-5.59,6.22-9.47,8.83-5.3,3.55-11.35,5.33-18.17,5.33-5.37,0-9.54-1.19-12.51-3.59-2.98-2.4-4.46-5.7-4.46-9.91,0-4.79,1.74-8.38,5.22-10.78,3.48-2.4,8.49-3.59,15.02-3.59h8.49l2.17-24.17h-82.06v24.38l28.52-.65c-2.33,1.89-4.18,4.46-5.55,7.72s-2.07,7-2.07,11.21c0,6.96,1.88,12.99,5.66,18.06,3.77,5.09,9,9.01,15.67,11.76,6.67,2.76,14.29,4.13,22.85,4.13,7.84,0,14.95-1.05,21.33-3.15,3.35-1.1,6.45-2.51,9.36-4.15v26.25h30.25v-111.02h28.3v111.02h30.48v-111.02h97.95v29.83h-62.9c-6.68,0-11.18,1.3-13.5,3.91-2.32,2.62-3.48,6.03-3.48,10.23,0,3.49.98,7.22,2.94,11.21,1.96,3.99,4.57,7.69,7.83,11.11,3.26,3.41,6.78,6.17,10.56,8.27,3.77,2.11,7.47,3.15,11.1,3.15,4.93,0,8.71-1.53,11.32-4.57s3.92-7.76,3.92-14.15v-4.79h32.21v56.82h30.48v-111.02h20.02v-24.37h-128.42ZM1507.12,531.74c-5.3,3.48-10.92,5.23-16.87,5.23-3.92,0-7.19-.73-9.79-2.18-2.61-1.44-4.57-3.73-5.88-6.85-1.31-3.12-1.96-7.29-1.96-12.51v-34.4h42.01v44.84c-2.2,2.04-4.66,4.01-7.51,5.88Z"/>
    </g>
  </g>
  <path class="st2" d="M941.49,317.11l-.02.02h.02c-5.04,7.61-6.86,16.78-8.38,26.32-1.88,11.64-3.85,22.8-7.97,33.76-4.94,13.1-13.22,27.73-27.65,39.18-14.98-40.65-36.81-77.98-64.06-110.63,17.19-6.89,34.06-6.78,47.93-4.5,11.52,1.92,22.16,5.78,33.18,9.96,9.02,3.46,17.86,6.46,26.96,5.89M915.11,482.21c18.2,2.69,32.67,11.18,43.48,20.07,9.02,7.42,16.32,16.1,23.76,25.25,6.09,7.49,12.24,14.52,20.4,18.6h-82.15c-.02-21.8-1.92-43.15-5.49-63.92ZM654.45,216.97c138.09,45.68,237.89,175.72,238.48,329.16h-68.34c4.52-134.03-53.89-255.02-170.14-329.16ZM774.09,149.47v.02h0c-.56,9.09,2.44,17.96,5.88,27,4.18,11.01,8.04,21.67,9.94,33.21,2.29,13.91,2.39,30.82-4.49,48.05-32.64-27.24-69.98-49.05-110.6-64.01,11.45-14.55,26.11-22.91,39.27-27.88,10.93-4.1,22.08-6.1,33.7-7.98,9.54-1.53,18.69-3.35,26.29-8.4ZM545.42,88.11v.02-.02c4.08,8.17,11.08,14.35,18.58,20.45,9.12,7.46,17.79,14.74,25.2,23.78,8.93,10.9,17.47,25.51,20.1,43.89-20.76-3.56-42.1-5.44-63.88-5.44s-43.11,1.88-63.88,5.44c2.63-18.38,11.17-32.99,20.11-43.89,7.41-9.04,16.08-16.32,25.2-23.78,7.49-6.1,14.5-12.28,18.57-20.45ZM316.75,149.49h.02v-.02c7.59,5.05,16.75,6.87,26.28,8.42,11.62,1.88,22.77,3.86,33.7,7.96,13.16,4.97,27.83,13.33,39.28,27.88-40.64,14.97-77.96,36.77-110.61,64.01-6.89-17.23-6.78-34.13-4.49-48.05,1.91-11.54,5.77-22.2,9.94-33.21,3.45-9.04,6.44-17.91,5.88-27ZM149.36,317.13h0,0c9.1.55,17.94-2.45,26.97-5.89,10.99-4.2,21.64-8.06,33.16-9.98,13.88-2.28,30.75-2.39,47.94,4.5-27.25,32.65-49.06,69.98-64.06,110.63-14.42-11.45-22.72-26.06-27.65-39.18-4.1-10.96-6.09-22.12-7.97-33.76-1.53-9.55-3.36-18.71-8.39-26.32ZM88.09,546.13c8.16-4.09,14.31-11.11,20.41-18.6,7.43-9.13,14.72-17.83,23.75-25.25,10.82-8.89,25.28-17.38,43.48-20.07-3.58,20.77-5.47,42.12-5.49,63.92h-82.15Z"/>
  <path class="st1" d="M843.33,601v25.34h8.75c5.3,0,9.47-1.21,12.52-3.6,3.06-2.39,4.59-5.61,4.59-9.68s-1.37-7.23-4.13-9.43c-2.76-2.22-6.68-3.31-11.75-3.31s-8.3.23-9.99.68M822.39,677.87v-91.13c7.75-1.37,17.29-2.05,28.6-2.05,13.96,0,23.99,2.32,30.11,6.91,6.11,4.63,9.16,11.22,9.16,19.81,0,5.12-1.52,9.73-4.61,13.88-3.06,4.12-7.07,7.04-11.94,8.74v.56c5.73,2.13,9.89,7.79,12.45,16.98,4.7,16.53,7.24,25.3,7.67,26.3h-21.64c-1.82-3.43-4-10.6-6.56-21.5-1.28-5.5-3.01-9.32-5.2-11.52-2.19-2.18-5.7-3.28-10.54-3.28h-6.56v36.3h-20.94ZM746.33,638.15h21.21c-5.56-18.06-9.16-30.43-10.81-37.15h-.27l-4.38,17.55-5.75,19.6ZM770.82,653.75h-27.64l-6.84,24.12h-22.03l29.15-92.35h27.91l29.96,92.35h-22.99l-7.53-24.12ZM644.81,638.15h21.21c-5.56-18.06-9.16-30.43-10.81-37.15h-.27l-4.38,17.55-5.74,19.6ZM669.3,653.75h-27.64l-6.84,24.12h-22.03l29.14-92.35h27.92l29.96,92.35h-22.99l-7.53-24.12ZM513.74,585.52h21.2v35.49h36.26v-35.49h21.21v92.35h-21.21v-38.5h-36.26v38.5h-21.2v-92.35ZM427.82,601.83v60.15c1.18.26,3.74.41,7.66.41,10.53,0,18.7-2.79,24.47-8.34,5.77-5.55,8.64-13.5,8.64-23.87,0-9.49-2.62-16.74-7.89-21.71-5.27-4.99-12.87-7.47-22.77-7.47-4.15,0-7.53.28-10.12.83ZM406.61,677.46v-90.71c9.12-1.37,18.88-2.05,29.29-2.05,19.66,0,33.77,4.12,42.32,12.35,8.56,8.25,12.81,19.04,12.81,32.33,0,15.7-4.85,27.88-14.59,36.51-9.74,8.64-24.77,12.95-45.06,12.95-9.39,0-17.65-.45-24.77-1.37ZM330.54,638.15h21.21c-5.56-18.06-9.16-30.43-10.81-37.15h-.27l-4.38,17.55-5.75,19.6ZM355.03,653.75h-27.64l-6.84,24.12h-22.03l29.15-92.35h27.91l29.96,92.35h-22.98l-7.53-24.12ZM229.03,638.15h21.21c-5.56-18.06-9.16-30.43-10.81-37.15h-.27l-4.38,17.55-5.75,19.6ZM253.52,653.75h-27.64l-6.84,24.12h-22.03l29.15-92.35h27.91l29.96,92.35h-22.98l-7.53-24.12Z"/>
  <g>
    <path class="st3" d="M468.72,510.75c-19.62,5.29-35.94,19.1-51.4,35.35h36.77c7.25-4.57,16.4-5.07,17.14,0h27.07c4.98-26.47-7.44-41.33-29.58-35.35Z"/>
    <path class="st3" d="M520.14,361.54c-65.82-6.67-126.97,24.4-186.3,75.87-34.82,30.2-67.51,67.3-97.4,108.68h46.57c43.42-58.88,90.85-100.46,141.46-128.58,61.81-34.32,130.13-31.84,156.46,39.38,7.8,21.04-16.27,29.31-27.96,12.6-29.09-41.44-66.49-47.02-112.97-23.45-39,19.77-76.99,55.95-113.64,100.05h48.53c32.3-39.05,65.94-65.56,99.86-73.25,40.55-9.19,63.04,23.17,57.53,73.25h33.34c-.9-10.18,0-25.7,1.68-35.68,1.09-18.71,23.13-19,27.37-1.85,2.43,12.34,3.23,25.19,2.97,37.52h9.5s25.32,0,25.32,0c3.76-120.94-53.84-178.63-112.33-184.56Z"/>
    <path class="st3" d="M602.32,264.19c84.34,35.23,136.42,118.38,142.83,257.85.05,1.11.12,2.23.15,3.35.15,5.97,2.03,13.97,7.3,18.02,7.11,5.46,17.25,2.52,21.04-6.8,1.2-2.96,1.95-11.13,2-12.6,3.94-132.35-50.8-245.65-164.47-292.05-120.02-49.01-247.01-5.72-338.71,103.15,98.18-76.7,209.64-121.13,329.87-70.93Z"/>
    <path class="st3" d="M280.04,430.15c78.55-71.86,152.86-111.14,222.61-111.01,90.62.19,166.98,61.52,167.78,226.96h35.13c8.2-168.53-80.2-263.91-202.23-264.06-96.71-.1-175.26,54.37-243.92,126.72-23.8,25.08-10.35,49.71,20.63,21.4Z"/>
    <path class="st3" d="M224.18,494.65c9.06-7.44,16.59-14.74,19.3-22.56,4.74-13.61-6.74-26.48-21.72-13.72-6.33,5.41-12.44,16.14-15.59,28.2-3.05,11.62,5.54,18.27,18.01,8.07Z"/>
  </g>
</svg>